<svg width="70" height="70" viewBox="0 0 70 70" fill="none" xmlns="http://www.w3.org/2000/svg">
<g clip-path="url(#clip0)">
<g opacity="0.2">
<path d="M49.5126 55.6719V55.1602C49.5126 51.0896 46.0836 47.7777 41.8695 47.7777H22.7627C18.5486 47.7777 15.1212 51.0898 15.1212 55.1602V55.6727C13.2105 56.3123 13.2109 57.4888 13.2109 58.8511C13.2109 60.8895 14.9214 62.5419 17.0317 62.5419H47.6025C49.7128 62.5419 51.4241 60.8895 51.4241 58.8511C51.424 57.4881 51.4233 56.3113 49.5126 55.6719Z" fill="url(#paint0_linear)"/>
</g>
<path d="M44.3018 49.9967V49.5151C44.3018 45.684 40.8728 42.5669 36.6586 42.5669H17.5519C13.3377 42.5669 9.91028 45.6841 9.91028 49.5151V49.9975C7.99964 50.5994 8 51.7068 8 52.9889C8 54.9074 9.7105 56.4626 11.8208 56.4626H42.3916C44.5019 56.4626 46.2132 54.9074 46.2132 52.9889C46.2131 51.7061 46.2124 50.5985 44.3018 49.9967Z" stroke="#8DA6D0" stroke-width="4.5"/>
<path d="M65.1605 39.5405L38.9601 24.4137" stroke="#264B82" stroke-width="4.5"/>
<rect x="34.5439" y="10.5947" width="9.75923" height="19.5185" transform="rotate(30 34.5439 10.5947)" stroke="#264B82" stroke-width="4.5"/>
<path d="M29.2932 7L48.7322 18.2231" stroke="#264B82" stroke-width="4.5"/>
<path d="M19.2904 24.3262L38.7294 35.5493" stroke="#264B82" stroke-width="4.5"/>
</g>
<defs>
<linearGradient id="paint0_linear" x1="32.3175" y1="-10.7518" x2="32.3175" y2="62.5419" gradientUnits="userSpaceOnUse">
<stop offset="0.729167" stop-color="#264B82"/>
<stop offset="1" stop-color="#8DA6D0" stop-opacity="0.12"/>
</linearGradient>
<clipPath id="clip0">
<rect width="70" height="70" fill="white"/>
</clipPath>
</defs>
</svg>
